# xmcd
#
# Track frame offsets:
#	150
#	10892
#	22584
#	35261
#	50277
#	63041
#	75283
#	87291
#	101753
#	113514
#	124644
#	137990
#
# Disc length: 2035 seconds
#
# Revision: 2
# Processed by: cddbd v1.5.2PL0 Copyright (c) Steve Scherf et al.
# Submitted via: EasyCDDAExtractor 12.0.0.1
#
DISCID=7f07f10c
DTITLE=Various Artist - ΟΛΑ ΘΥΜΙΖΟΥΝ ΤΟΝ ΜΑΝΟ ΛΟΙΖΟ 1966 - 2005
DYEAR=2008
DGENRE=GREEK
TTITLE0=ΓΙΩΡΓΟΣ ΝΤΑΛΑΡΑΣ - ΤΟ ΔΕΝΤΡΟ
TTITLE1=ΓΙΩΡΓΟΣ ΝΤΑΛΑΡΑΣ - ΑΧ ΠΑΤΡΙΔΑ ΜΟΥ ΚΑΗΜΕΝΗ
TTITLE2=ΒΑΣΙΛΗΣ ΠΑΠΑΚΩΝΣΤΑΝΤΙΝΟΥ - Ο ΤΡΙΤΟΣ ΠΑΓΚΟΣΜΙΟΣ
TTITLE3=ΧΑΡΗΣ ΑΛΕΞΙΟΥ - Ο ΑΡΧΗΓΟΣ
TTITLE4=ΧΑΡΙΣ ΑΛΕΞΙΟΥ - ΣΥΡΜΑΤΟΠΛΕΓΜΑΤΑ
TTITLE5=ΑΛΕΚΑ ΑΛΙΜΠΕΡΤΗ - ΘΑ ΚΛΕΙΣΩ ΤΟ ΠΑΡΑΘΥΡΟ
TTITLE6=ΒΑΣΙΛΗΣ ΠΑΠΑΚΩΝΣΤΑΝΤΙΝΟΥ - Ο ΣΤΡΑΤΙΩΤΗΣ
TTITLE7=ΓΙΩΡΓΟΣ ΝΤΑΛΑΡΑΣ - ΠΑΓΩΣΕ Η ΤΣΙΜΙΝΙΕΡΑ
TTITLE8=ΜΑΝΟΣ ΛΟΙΖΟΣ - Ο ΝΕΓΡΟΣ Ο ΖΩΓΡΑΦΟΣ
TTITLE9=ΜΑΡΙΑ ΦΑΡΑΝΤΟΥΡΗ - Ο ΓΕΡΟ ΝΕΓΡΟ ΤΖΙΜ
TTITLE10=ΜΑΡΙΑ ΦΑΡΑΝΤΟΥΡΗ - ΣΤΟΝ ΠΟΛΕΜΟ Ο ΤΖΟ
TTITLE11=ΜΑΡΙΑ ΦΑΡΑΝΤΟΥΡΗ - Ç Ðüñíç Ç ÔæÝçí
EXTD=
EXTT0=
EXTT1=
EXTT2=
EXTT3=
EXTT4=
EXTT5=
EXTT6=
EXTT7=
EXTT8=
EXTT9=
EXTT10=
EXTT11=
PLAYORDER=
